<?xml version="1.0" encoding="utf-8"?>
<!-- Generator: Adobe Illustrator 17.0.0, SVG Export Plug-In . SVG Version: 6.00 Build 0)  -->
<!DOCTYPE svg PUBLIC "-//W3C//DTD SVG 1.1//EN" "http://www.w3.org/Graphics/SVG/1.1/DTD/svg11.dtd">
<svg version="1.1" id="Calque_1" xmlns="http://www.w3.org/2000/svg" xmlns:xlink="http://www.w3.org/1999/xlink" x="0px" y="0px"
	 width="307.667px" height="100px" viewBox="0 0 307.667 100" enable-background="new 0 0 307.667 100" xml:space="preserve">
<path d="M251.595,48.385c-0.549-2.603-1.087-4.893-2.535-6.824c-1.821-2.43-3.734-4.791-5.614-7.177
	c-0.267-0.339-0.751-0.612-0.823-0.976c-0.12-0.613-0.21-1.427,0.098-1.874c0.291-0.422,1.12-0.671,1.695-0.644
	c0.597,0.028,1.308,0.342,1.738,0.766c2.473,2.44,4.882,4.945,7.295,7.444c0.216,0.224,0.307,0.568,0.545,1.029
	c-0.229,0.376-0.461,0.848-0.777,1.253c-0.611,0.782-0.588,1.651-0.288,2.482c0.773,2.14,1.623,4.253,2.441,6.373
	c-1.301,2.375-1.738,2.531-4.01,2.111c-4.589-0.847-9.223-1.469-13.786-2.431c-3.718-0.784-7.582-0.815-11.181-2.213
	c-0.882-0.343-1.828-0.695-2.77-0.212c-0.439,0.797,0.004,1.296,0.501,1.735c1.387,1.223,2.833,2.38,4.182,3.642
	c0.783,0.734,1.444,1.603,2.122,2.443c0.792,0.98,0.499,2.083,0.179,3.119c-0.221,0.714-0.945,0.849-1.608,0.883
	c-2.618,0.134-5.206-0.144-7.782-0.589c-2.786-0.482-5.565-1.021-8.365-1.399c-5.69-0.768-11.399-1.388-17.085-2.18
	c-3.702-0.516-7.377-0.378-11.063,0.02c-1.591,0.172-3.18,0.37-5.152,0.601c0.68,1.002,1.054,1.765,1.619,2.343
	c1.663,1.704,3.411,3.325,5.107,4.997c0.763,0.752,1.646,1.416,1.49,2.732c-0.131,1.106-0.391,1.737-1.398,1.915
	c-0.943,0.167-1.959,0.229-2.893,0.06c-1.097-0.199-2.133-0.119-3.223-0.048c-1.719,0.112-3.481,0.109-5.18-0.143
	c-2.683-0.398-5.309-1.214-7.997-1.527c-1.925-0.224-3.859-0.298-5.772-0.713c-4.355-0.945-8.874-0.934-13.18-2.197
	c-0.207-0.061-0.428-0.104-0.642-0.106c-5.547-0.061-11.094-0.125-16.642-0.157c-0.5-0.003-1.001,0.213-1.618,0.354
	c0.361,2.035,1.484,3.554,2.199,5.232c0.596,1.397,1.368,2.696,1.504,4.28c0.061,0.709,0.539,1.398,0.889,2.064
	c0.853,1.626,1.72,3.242,2.39,4.884c-1.417,1.728-2.947,1.539-4.505,0.706c-1.529-0.818-2.991-1.76-4.516-2.587
	c-2.933-1.591-5.891-3.136-8.835-4.706c-0.472-0.252-0.898-0.632-1.397-0.785c-1.4-0.428-1.826-2.105-3.352-2.427
	c-1.36-0.286-2.74-0.704-3.969-1.338c-2.895-1.491-5.709-3.141-8.548-4.742c-0.375-0.211-0.715-0.494-1.045-0.774
	c-0.963-0.818-2.551-0.407-3.25-1.917c-0.517-1.117-2.511-0.831-2.833-2.42c-0.028-0.138-0.332-0.279-0.527-0.315
	c-2.244-0.414-4.113-1.83-6.328-2.333c-1.386-0.315-2.564-0.984-3.686-1.954c-1.033-0.893-2.461-1.335-3.731-1.943
	c-0.783-0.375-1.742-0.519-2.368-1.06c-2.36-2.038-5.357-2.842-7.999-4.321c-0.064-0.036-0.2,0.056-0.507,0.154
	c0.271,0.568,0.454,1.165,0.8,1.643c1.786,2.465,3.514,4.984,5.452,7.327c2.841,3.434,5.813,6.761,8.793,10.075
	c0.865,0.961,1.937,1.739,2.938,2.573c1.693,1.411,1.701,1.402,0.898,3.951c-1.305,0.546-2.692,0.411-4.096,0.202
	c-0.96-0.143-1.981-0.449-2.891-0.266c-3.818,0.768-7.844,0.202-11.527,1.827c-0.479,0.211-1.068,0.17-1.606,0.249
	c-2.582,0.376-5.154,0.876-7.75,1.085c-1.603,0.129-3.286,0.011-4.852-0.349c-1.72-0.395-3.414-0.572-5.164-0.588
	c-1.737-0.016-3.471-0.267-5.208-0.29c-3.149-0.042-6.302-0.056-9.45,0.037c-4.783,0.141-9.55,0.347-14.343-0.1
	c-3.126-0.291-6.3-0.07-9.452-0.069c-0.762,0-1.526,0.075-2.287,0.05c-1.543-0.052-1.99-0.602-1.933-2.327
	c0.007-0.208,0.105-0.416,0.177-0.618c0.036-0.1,0.108-0.187,0.319-0.537c0.658-0.072,1.495-0.209,2.336-0.245
	c1.839-0.08,3.679-0.124,5.52-0.152c1.087-0.017,2.174,0.022,3.261,0.042c4.993,0.094,9.957,0.768,14.987,0.262
	c3.321-0.334,6.709-0.103,10.063-0.004c3.912,0.116,7.822,0.34,11.73,0.57c0.957,0.056,1.897,0.358,2.854,0.479
	c3.516,0.444,6.93-0.261,10.329-1.009c2.973-0.655,5.955-1.114,9.013-0.919c0.535,0.034,1.09-0.024,1.617-0.133
	c0.833-0.172,1.65-0.423,2.669-0.691c-0.219-0.542-0.277-1.006-0.536-1.276c-2.175-2.272-4.4-4.497-6.577-6.768
	c-0.432-0.451-0.758-1.017-1.075-1.563c-0.539-0.929-0.841-2.085-1.58-2.792c-2.065-1.975-3.287-4.552-5.09-6.693
	c-1.814-2.153-3.695-4.246-5.3-6.569c-0.233-0.337-0.618-0.653-1-0.789c-1.455-0.516-1.537-1.696-1.5-2.93
	c0.033-1.092,1.156-1.644,2.14-1.079c0.187,0.107,0.35,0.255,0.534,0.37c1.103,0.689,2.191,1.404,3.319,2.049
	c0.942,0.539,1.982,0.915,2.892,1.498c3.668,2.35,7.678,4.057,11.463,6.183c2.177,1.223,4.33,2.489,6.501,3.724
	c0.563,0.32,1.123,0.696,1.734,0.875c4.782,1.401,8.908,3.986,12.82,6.979c0.691,0.529,1.399,1.058,2.165,1.461
	c1.438,0.757,3.131,1.179,4.333,2.196c1.175,0.995,2.487,1.705,3.679,2.602c1.598,1.204,3.574,1.447,5.201,2.518
	c1.353,0.891,2.858,1.55,4.301,2.302c3.183,1.661,6.37,3.313,9.551,4.976c0.521,0.272,1.121,0.425,1.478-0.06
	c0.28-0.382,0.346-0.986,0.344-1.49c-0.002-0.409-0.121-1.009-0.404-1.194c-1.407-0.919-1.523-2.598-2.4-3.794
	c-0.696-0.949-0.51-2.301-1.687-3.033c-0.894-0.556-1.504-1.56-2.389-2.14c-2.112-1.385-2.14-3.081-0.993-5.091
	c0.906-0.751,2.031-0.612,3.1-0.589c3.045,0.065,6.088,0.193,9.133,0.292c0.541,0.018,1.087,0.074,1.623,0.023
	c3.502-0.336,6.937,0.138,10.382,0.713c4.064,0.678,8.198,0.993,12.22,1.85c4.698,1.002,9.491,1.188,14.196,2.05
	c1.601,0.293,3.242,0.393,4.869,0.509c0.502,0.036,1.022-0.166,1.616-0.274c-0.103-1.333-0.787-2.101-1.694-2.771
	c-1.835-1.354-3.639-2.749-5.464-4.116c-1.299-0.973-1.822-2.469-1.224-4.034c0.159-0.417,0.732-0.875,1.174-0.945
	c1.176-0.187,2.387-0.142,3.579-0.246c2.6-0.227,5.199-0.46,7.793-0.745c4.792-0.526,9.527-0.215,14.277,0.582
	c5.362,0.901,10.766,1.552,16.15,2.33c1.614,0.233,3.227,0.492,4.827,0.805c1.287,0.252,2.532,0.346,3.829-0.198
	c-0.196-1.39-1.312-1.88-2.039-2.582c-1.092-1.055-2.299-1.962-3.179-3.251c-0.475-0.695-1.255-1.187-1.921-1.743
	c-0.332-0.277-0.757-0.45-1.07-0.744c-0.856-0.801-1.287-2.221-0.887-2.956c0.539-0.992,1.504-1.184,2.517-1.176
	c0.539,0.004,1.08,0.097,1.617,0.173c5.073,0.718,10.047,1.9,15.022,3.102c2.634,0.637,5.326,1.04,7.999,1.508
	c2.357,0.412,4.723,0.779,7.088,1.14C250.072,48.328,250.696,48.325,251.595,48.385z"/>
<path d="M242.573,19.581c4.01-0.462,8.635,0.4,13.674,2.411c8.241,3.289,15.724,7.668,23.305,11.901
	c5.474,3.057,10.889,6.175,16.886,9.581c0.262,0.917,0.581,2.038,1.003,3.52c-1.596-0.441-3.019-0.599-4.111-1.179
	c-3.989-2.117-7.866-4.377-11.79-6.578c-7.564-4.242-14.85-8.836-23.022-12.315c-3.606-1.535-7.232-3.003-10.848-4.504
	C245.815,21.649,243.674,21.171,242.573,19.581z"/>
<path d="M254.199,63.103c-0.476-0.933-0.242-1.778,1.694-2.736c0.225-0.111,0.447-0.234,0.685-0.325
	c7.425-2.85,14.554-6.21,22.3-8.522c3.927-1.172,7.813-2.626,11.724-3.931c0.974-0.325,2.119-0.765,2.924-0.796
	c0.998-0.039,2.189,0.107,2.436,0.513c0.252,0.415-0.197,1.364-0.949,1.862c-1.297,0.859-3.031,1.787-4.642,2.269
	c-6.918,2.072-13.685,4.465-20.455,6.984c-2.832,1.054-5.906,1.573-8.86,2.428C258.935,61.463,256.827,62.232,254.199,63.103z"/>
</svg>
